<svg aria-roledescription="class" role="graphics-document document" viewBox="0 0 644.4296875 738.875" style="max-width: 644.4296875px;" class="classDiagram" xmlns="http://www.w3.org/2000/svg" width="100%" id="mermaidSvgId"><style>#mermaidSvgId{font-family:"trebuchet ms",verdana,arial,sans-serif;font-size:16px;fill:#000000;}#mermaidSvgId .error-icon{fill:#552222;}#mermaidSvgId .error-text{fill:#552222;stroke:#552222;}#mermaidSvgId .edge-thickness-normal{stroke-width:1px;}#mermaidSvgId .edge-thickness-thick{stroke-width:3.5px;}#mermaidSvgId .edge-pattern-solid{stroke-dasharray:0;}#mermaidSvgId .edge-thickness-invisible{stroke-width:0;fill:none;}#mermaidSvgId .edge-pattern-dashed{stroke-dasharray:3;}#mermaidSvgId .edge-pattern-dotted{stroke-dasharray:2;}#mermaidSvgId .marker{fill:#000000;stroke:#000000;}#mermaidSvgId .marker.cross{stroke:#000000;}#mermaidSvgId svg{font-family:"trebuchet ms",verdana,arial,sans-serif;font-size:16px;}#mermaidSvgId p{margin:0;}#mermaidSvgId g.classGroup text{fill:#13540c;stroke:none;font-family:"trebuchet ms",verdana,arial,sans-serif;font-size:10px;}#mermaidSvgId g.classGroup text .title{font-weight:bolder;}#mermaidSvgId .nodeLabel,#mermaidSvgId .edgeLabel{color:#321b67;}#mermaidSvgId .edgeLabel .label rect{fill:#cde498;}#mermaidSvgId .label text{fill:#321b67;}#mermaidSvgId .labelBkg{background:#cde498;}#mermaidSvgId .edgeLabel .label span{background:#cde498;}#mermaidSvgId .classTitle{font-weight:bolder;}#mermaidSvgId .node rect,#mermaidSvgId .node circle,#mermaidSvgId .node ellipse,#mermaidSvgId .node polygon,#mermaidSvgId .node path{fill:#cde498;stroke:#13540c;stroke-width:1px;}#mermaidSvgId .divider{stroke:#13540c;stroke-width:1;}#mermaidSvgId g.clickable{cursor:pointer;}#mermaidSvgId g.classGroup rect{fill:#cde498;stroke:#13540c;}#mermaidSvgId g.classGroup line{stroke:#13540c;stroke-width:1;}#mermaidSvgId .classLabel .box{stroke:none;stroke-width:0;fill:#cde498;opacity:0.5;}#mermaidSvgId .classLabel .label{fill:#13540c;font-size:10px;}#mermaidSvgId .relation{stroke:#000000;stroke-width:1;fill:none;}#mermaidSvgId .dashed-line{stroke-dasharray:3;}#mermaidSvgId .dotted-line{stroke-dasharray:1 2;}#mermaidSvgId #compositionStart,#mermaidSvgId .composition{fill:#000000!important;stroke:#000000!important;stroke-width:1;}#mermaidSvgId #compositionEnd,#mermaidSvgId .composition{fill:#000000!important;stroke:#000000!important;stroke-width:1;}#mermaidSvgId #dependencyStart,#mermaidSvgId .dependency{fill:#000000!important;stroke:#000000!important;stroke-width:1;}#mermaidSvgId #dependencyStart,#mermaidSvgId .dependency{fill:#000000!important;stroke:#000000!important;stroke-width:1;}#mermaidSvgId #extensionStart,#mermaidSvgId .extension{fill:transparent!important;stroke:#000000!important;stroke-width:1;}#mermaidSvgId #extensionEnd,#mermaidSvgId .extension{fill:transparent!important;stroke:#000000!important;stroke-width:1;}#mermaidSvgId #aggregationStart,#mermaidSvgId .aggregation{fill:transparent!important;stroke:#000000!important;stroke-width:1;}#mermaidSvgId #aggregationEnd,#mermaidSvgId .aggregation{fill:transparent!important;stroke:#000000!important;stroke-width:1;}#mermaidSvgId #lollipopStart,#mermaidSvgId .lollipop{fill:#cde498!important;stroke:#000000!important;stroke-width:1;}#mermaidSvgId #lollipopEnd,#mermaidSvgId .lollipop{fill:#cde498!important;stroke:#000000!important;stroke-width:1;}#mermaidSvgId .edgeTerminals{font-size:11px;line-height:initial;}#mermaidSvgId .classTitleText{text-anchor:middle;font-size:18px;fill:#000000;}#mermaidSvgId :root{--mermaid-font-family:"trebuchet ms",verdana,arial,sans-serif;}</style><g><defs><marker orient="auto" markerHeight="240" markerWidth="190" refY="7" refX="18" class="marker aggregation class" id="mermaidSvgId_class-aggregationStart"><path d="M 18,7 L9,13 L1,7 L9,1 Z"></path></marker></defs><defs><marker orient="auto" markerHeight="28" markerWidth="20" refY="7" refX="1" class="marker aggregation class" id="mermaidSvgId_class-aggregationEnd"><path d="M 18,7 L9,13 L1,7 L9,1 Z"></path></marker></defs><defs><marker orient="auto" markerHeight="240" markerWidth="190" refY="7" refX="18" class="marker extension class" id="mermaidSvgId_class-extensionStart"><path d="M 1,7 L18,13 V 1 Z"></path></marker></defs><defs><marker orient="auto" markerHeight="28" markerWidth="20" refY="7" refX="1" class="marker extension class" id="mermaidSvgId_class-extensionEnd"><path d="M 1,1 V 13 L18,7 Z"></path></marker></defs><defs><marker orient="auto" markerHeight="240" markerWidth="190" refY="7" refX="18" class="marker composition class" id="mermaidSvgId_class-compositionStart"><path d="M 18,7 L9,13 L1,7 L9,1 Z"></path></marker></defs><defs><marker orient="auto" markerHeight="28" markerWidth="20" refY="7" refX="1" class="marker composition class" id="mermaidSvgId_class-compositionEnd"><path d="M 18,7 L9,13 L1,7 L9,1 Z"></path></marker></defs><defs><marker orient="auto" markerHeight="240" markerWidth="190" refY="7" refX="6" class="marker dependency class" id="mermaidSvgId_class-dependencyStart"><path d="M 5,7 L9,13 L1,7 L9,1 Z"></path></marker></defs><defs><marker orient="auto" markerHeight="28" markerWidth="20" refY="7" refX="13" class="marker dependency class" id="mermaidSvgId_class-dependencyEnd"><path d="M 18,7 L9,13 L14,7 L9,1 Z"></path></marker></defs><defs><marker orient="auto" markerHeight="240" markerWidth="190" refY="7" refX="13" class="marker lollipop class" id="mermaidSvgId_class-lollipopStart"><circle r="6" cy="7" cx="7" fill="transparent" stroke="black"></circle></marker></defs><defs><marker orient="auto" markerHeight="240" markerWidth="190" refY="7" refX="1" class="marker lollipop class" id="mermaidSvgId_class-lollipopEnd"><circle r="6" cy="7" cx="7" fill="transparent" stroke="black"></circle></marker></defs><g class="root"><g class="clusters"></g><g class="edgePaths"><path marker-end="url(#mermaidSvgId_class-dependencyEnd)" style=";" class="edge-thickness-normal edge-pattern-solid relation" id="id_Bank_Account_1" d="M148.02,178.969L148.02,185.018C148.02,191.068,148.02,203.167,149.311,214.296C150.603,225.426,153.186,235.587,154.477,240.667L155.769,245.747"></path><path marker-end="url(#mermaidSvgId_class-dependencyEnd)" style=";" class="edge-thickness-normal edge-pattern-solid relation" id="id_Account_Transaction_2" d="M184.469,465.719L184.469,471.768C184.469,477.818,184.469,489.917,189.922,501.396C195.375,512.874,206.281,523.733,211.734,529.163L217.188,534.592"></path><path marker-end="url(#mermaidSvgId_class-dependencyEnd)" style=";" class="edge-thickness-normal edge-pattern-solid relation" id="id_Customer_Account_3" d="M393.764,178.969L387.149,185.018C380.535,191.068,367.305,203.167,350.112,218.158C332.919,233.15,311.762,251.035,301.184,259.977L290.606,268.919"></path><path marker-end="url(#mermaidSvgId_class-dependencyEnd)" style=";" class="edge-thickness-normal edge-pattern-solid relation" id="id_Customer_Transaction_4" d="M501.224,178.969L502.214,185.018C503.204,191.068,505.184,203.167,506.174,233.112C507.164,263.057,507.164,310.849,507.164,358.641C507.164,406.432,507.164,454.224,492.425,488.429C477.686,522.635,448.209,543.254,433.47,553.564L418.731,563.873"></path></g><g class="edgeLabels"><g transform="translate(148.01953125, 215.265625)" class="edgeLabel"><g transform="translate(-33.0390625, -11.296875)" class="label"><g><rect height="22.59375" width="66.078125" y="-1.03125" x="-2" style=";display: inline-block" class="background"></rect><text style=";display: inline-block" y="-10.1"><tspan dy="1.1em" y="-0.1em" x="0" class="text-outer-tspan"><tspan font-weight="normal" class="text-inner-tspan" font-style="normal">manages</tspan></tspan></text></g></g></g><g transform="translate(184.46875, 502.015625)" class="edgeLabel"><g transform="translate(-28.53125, -11.296875)" class="label"><g><rect height="22.59375" width="57.0625" y="-1.03125" x="-2" style=";display: inline-block" class="background"></rect><text style=";display: inline-block" y="-10.1"><tspan dy="1.1em" y="-0.1em" x="0" class="text-outer-tspan"><tspan font-weight="normal" class="text-inner-tspan" font-style="normal">records</tspan></tspan></text></g></g></g><g transform="translate(354.076171875, 215.265625)" class="edgeLabel"><g transform="translate(-19.859375, -11.296875)" class="label"><g><rect height="22.59375" width="39.71875" y="-1.03125" x="-2" style=";display: inline-block" class="background"></rect><text style=";display: inline-block" y="-10.1"><tspan dy="1.1em" y="-0.1em" x="0" class="text-outer-tspan"><tspan font-weight="normal" class="text-inner-tspan" font-style="normal">owns</tspan></tspan></text></g></g></g><g transform="translate(507.1640625, 358.640625)" class="edgeLabel"><g transform="translate(-31.3671875, -11.296875)" class="label"><g><rect height="22.59375" width="62.734375" y="-1.03125" x="-2" style=";display: inline-block" class="background"></rect><text style=";display: inline-block" y="-10.1"><tspan dy="1.1em" y="-0.1em" x="0" class="text-outer-tspan"><tspan font-weight="normal" class="text-inner-tspan" font-style="normal">initiates</tspan></tspan></text></g></g></g><g transform="translate(133.01953062500002, 196.4687494642857)" class="edgeTerminals"><g transform="translate(-2.890625, -6.3984375)" class="inner"><text style=";display: inline-block"><tspan class="row" x="0" dy="1em" xml:space="preserve">1</tspan></text></g></g><g transform="translate(169.46875, 483.21875)" class="edgeTerminals"><g transform="translate(-2.890625, -6.3984375)" class="inner"><text style=";display: inline-block"><tspan class="row" x="0" dy="1em" xml:space="preserve">1</tspan></text></g></g><g transform="translate(370.72701274487383, 179.71022792595085)" class="edgeTerminals"><g transform="translate(-2.890625, -6.3984375)" class="inner"><text style=";display: inline-block"><tspan class="row" x="0" dy="1em" xml:space="preserve">1</tspan></text></g></g><g transform="translate(489.247243503765, 198.66156047703805)" class="edgeTerminals"><g transform="translate(-2.890625, -6.3984375)" class="inner"><text style=";display: inline-block"><tspan class="row" x="0" dy="1em" xml:space="preserve">1</tspan></text></g></g><g transform="translate(162.47285794966123, 225.90620849973763)" class="edgeTerminals"><g transform="translate(-2.0234375, -6.3984375)" class="inner"></g><text style=";display: inline-block"><tspan class="row" x="0" dy="1em" xml:space="preserve">*</tspan></text></g><g transform="translate(214.6215242727331, 510.8482159987201)" class="edgeTerminals"><g transform="translate(-2.0234375, -6.3984375)" class="inner"></g><text style=";display: inline-block"><tspan class="row" x="0" dy="1em" xml:space="preserve">*</tspan></text></g><g transform="translate(304.07175829385676, 267.9507582784439)" class="edgeTerminals"><g transform="translate(-2.0234375, -6.3984375)" class="inner"></g><text style=";display: inline-block"><tspan class="row" x="0" dy="1em" xml:space="preserve">*</tspan></text></g><g transform="translate(431.7521646984371, 564.5729917972551)" class="edgeTerminals"><g transform="translate(-2.0234375, -6.3984375)" class="inner"></g><text style=";display: inline-block"><tspan class="row" x="0" dy="1em" xml:space="preserve">*</tspan></text></g></g><g class="nodes"><g transform="translate(148.01953125, 93.484375)" id="classId-Bank-118" class="node default"><g class="basic label-container"><path style="" fill="#cde498" stroke-width="0" stroke="none" d="M-140.01953125 -85.484375 L140.01953125 -85.484375 L140.01953125 85.484375 L-140.01953125 85.484375"></path><path style="" fill="none" stroke-width="1.3" stroke="#13540c" d="M-140.01953125 -85.484375 C-72.23576867827933 -85.484375, -4.452006106558656 -85.484375, 140.01953125 -85.484375 M-140.01953125 -85.484375 C-32.204709003217445 -85.484375, 75.61011324356511 -85.484375, 140.01953125 -85.484375 M140.01953125 -85.484375 C140.01953125 -20.628637104621063, 140.01953125 44.22710079075787, 140.01953125 85.484375 M140.01953125 -85.484375 C140.01953125 -43.03557406267513, 140.01953125 -0.5867731253502626, 140.01953125 85.484375 M140.01953125 85.484375 C79.10008622047235 85.484375, 18.180641190944684 85.484375, -140.01953125 85.484375 M140.01953125 85.484375 C75.48164610342548 85.484375, 10.943760956850952 85.484375, -140.01953125 85.484375 M-140.01953125 85.484375 C-140.01953125 33.74540836738082, -140.01953125 -17.993558265238363, -140.01953125 -85.484375 M-140.01953125 85.484375 C-140.01953125 17.430012524084503, -140.01953125 -50.62434995183099, -140.01953125 -85.484375"></path></g><g transform="translate(0, -65.484375)" class="annotation-group text"></g><g transform="translate(-18.1328125, -65.484375)" class="label-group text"><g transform="translate(0,-9.296875)" style="font-weight: bolder" class="label"><g><rect style="stroke: none" class="background"></rect><text style="" y="-10.1"><tspan font-weight="" dy="1.1em" y="-0.1em" x="0" class="text-outer-tspan"><tspan font-weight="" class="text-inner-tspan" font-style="normal">Bank</tspan></tspan></text></g></g></g><g transform="translate(-128.01953125, -22.890625)" class="members-group text"><g transform="translate(0,-9.296875)" style="" class="label"><g><rect style="stroke: none" class="background"></rect><text style="" y="-10.1"><tspan dy="1.1em" y="-0.1em" x="0" class="text-outer-tspan"><tspan font-weight="normal" class="text-inner-tspan" font-style="normal">-String</tspan><tspan font-weight="normal" class="text-inner-tspan" font-style="normal"> bankName</tspan></tspan></text></g></g><g transform="translate(0,12.296875)" style="" class="label"><g><rect style="stroke: none" class="background"></rect><text style="" y="-10.1"><tspan dy="1.1em" y="-0.1em" x="0" class="text-outer-tspan"><tspan font-weight="normal" class="text-inner-tspan" font-style="normal">-String</tspan><tspan font-weight="normal" class="text-inner-tspan" font-style="normal"> location</tspan></tspan></text></g></g></g><g transform="translate(-128.01953125, 41.296875)" class="methods-group text"><g transform="translate(0,-9.296875)" style="" class="label"><g><rect style="stroke: none" class="background"></rect><text style="" y="-10.1"><tspan dy="1.1em" y="-0.1em" x="0" class="text-outer-tspan"><tspan font-weight="normal" class="text-inner-tspan" font-style="normal">+createAccount(accountHolder)</tspan></tspan></text></g></g><g transform="translate(0,12.296875)" style="" class="label"><g><rect style="stroke: none" class="background"></rect><text style="" y="-10.1"><tspan dy="1.1em" y="-0.1em" x="0" class="text-outer-tspan"><tspan font-weight="normal" class="text-inner-tspan" font-style="normal">+processTransaction(transaction)</tspan></tspan></text></g></g></g><g style="" class="divider"><path style="" fill="none" stroke-width="1.3" stroke="#13540c" d="M-140.01953125 -42.890625 C-42.23358078360437 -42.890625, 55.552369682791266 -42.890625, 140.01953125 -42.890625 M-140.01953125 -42.890625 C-42.89189896743467 -42.890625, 54.23573331513066 -42.890625, 140.01953125 -42.890625"></path></g><g style="" class="divider"><path style="" fill="none" stroke-width="1.3" stroke="#13540c" d="M-140.01953125 21.296875 C-64.45444409428075 21.296875, 11.110643061438509 21.296875, 140.01953125 21.296875 M-140.01953125 21.296875 C-75.17572243096006 21.296875, -10.331913611920129 21.296875, 140.01953125 21.296875"></path></g></g><g transform="translate(184.46875, 358.640625)" id="classId-Account-119" class="node default"><g class="basic label-container"><path style="" fill="#cde498" stroke-width="0" stroke="none" d="M-101.5546875 -107.078125 L101.5546875 -107.078125 L101.5546875 107.078125 L-101.5546875 107.078125"></path><path style="" fill="none" stroke-width="1.3" stroke="#13540c" d="M-101.5546875 -107.078125 C-55.218790284976286 -107.078125, -8.882893069952573 -107.078125, 101.5546875 -107.078125 M-101.5546875 -107.078125 C-21.2277695291108 -107.078125, 59.0991484417784 -107.078125, 101.5546875 -107.078125 M101.5546875 -107.078125 C101.5546875 -47.66866043242807, 101.5546875 11.740804135143861, 101.5546875 107.078125 M101.5546875 -107.078125 C101.5546875 -25.86194263916289, 101.5546875 55.35423972167422, 101.5546875 107.078125 M101.5546875 107.078125 C37.12352491268409 107.078125, -27.30763767463182 107.078125, -101.5546875 107.078125 M101.5546875 107.078125 C35.37872409823814 107.078125, -30.797239303523725 107.078125, -101.5546875 107.078125 M-101.5546875 107.078125 C-101.5546875 27.845549144236628, -101.5546875 -51.387026711526744, -101.5546875 -107.078125 M-101.5546875 107.078125 C-101.5546875 43.89819545330231, -101.5546875 -19.281734093395386, -101.5546875 -107.078125"></path></g><g transform="translate(0, -87.078125)" class="annotation-group text"></g><g transform="translate(-30.40625, -87.078125)" class="label-group text"><g transform="translate(0,-9.296875)" style="font-weight: bolder" class="label"><g><rect style="stroke: none" class="background"></rect><text style="" y="-10.1"><tspan font-weight="" dy="1.1em" y="-0.1em" x="0" class="text-outer-tspan"><tspan font-weight="" class="text-inner-tspan" font-style="normal">Account</tspan></tspan></text></g></g></g><g transform="translate(-89.5546875, -44.484375)" class="members-group text"><g transform="translate(0,-9.296875)" style="" class="label"><g><rect style="stroke: none" class="background"></rect><text style="" y="-10.1"><tspan dy="1.1em" y="-0.1em" x="0" class="text-outer-tspan"><tspan font-weight="normal" class="text-inner-tspan" font-style="normal">-int</tspan><tspan font-weight="normal" class="text-inner-tspan" font-style="normal"> accountId</tspan></tspan></text></g></g><g transform="translate(0,12.296875)" style="" class="label"><g><rect style="stroke: none" class="background"></rect><text style="" y="-10.1"><tspan dy="1.1em" y="-0.1em" x="0" class="text-outer-tspan"><tspan font-weight="normal" class="text-inner-tspan" font-style="normal">-String</tspan><tspan font-weight="normal" class="text-inner-tspan" font-style="normal"> accountType</tspan></tspan></text></g></g><g transform="translate(0,33.890625)" style="" class="label"><g><rect style="stroke: none" class="background"></rect><text style="" y="-10.1"><tspan dy="1.1em" y="-0.1em" x="0" class="text-outer-tspan"><tspan font-weight="normal" class="text-inner-tspan" font-style="normal">-float</tspan><tspan font-weight="normal" class="text-inner-tspan" font-style="normal"> balance</tspan></tspan></text></g></g></g><g transform="translate(-89.5546875, 41.296875)" class="methods-group text"><g transform="translate(0,-9.296875)" style="" class="label"><g><rect style="stroke: none" class="background"></rect><text style="" y="-10.1"><tspan dy="1.1em" y="-0.1em" x="0" class="text-outer-tspan"><tspan font-weight="normal" class="text-inner-tspan" font-style="normal">+deposit(amount)</tspan></tspan></text></g></g><g transform="translate(0,12.296875)" style="" class="label"><g><rect style="stroke: none" class="background"></rect><text style="" y="-10.1"><tspan dy="1.1em" y="-0.1em" x="0" class="text-outer-tspan"><tspan font-weight="normal" class="text-inner-tspan" font-style="normal">+withdraw(amount)</tspan></tspan></text></g></g><g transform="translate(0,33.890625)" style="" class="label"><g><rect style="stroke: none" class="background"></rect><text style="" y="-10.1"><tspan dy="1.1em" y="-0.1em" x="0" class="text-outer-tspan"><tspan font-weight="normal" class="text-inner-tspan" font-style="normal">+getBalance()</tspan><tspan font-weight="normal" class="text-inner-tspan" font-style="normal"> :</tspan><tspan font-weight="normal" class="text-inner-tspan" font-style="normal"> float</tspan></tspan></text></g></g></g><g style="" class="divider"><path style="" fill="none" stroke-width="1.3" stroke="#13540c" d="M-101.5546875 -64.484375 C-51.631361369585775 -64.484375, -1.7080352391715508 -64.484375, 101.5546875 -64.484375 M-101.5546875 -64.484375 C-45.28360580144214 -64.484375, 10.987475897115715 -64.484375, 101.5546875 -64.484375"></path></g><g style="" class="divider"><path style="" fill="none" stroke-width="1.3" stroke="#13540c" d="M-101.5546875 21.296875 C-39.269777631055184 21.296875, 23.01513223788963 21.296875, 101.5546875 21.296875 M-101.5546875 21.296875 C-24.248886273771006 21.296875, 53.05691495245799 21.296875, 101.5546875 21.296875"></path></g></g><g transform="translate(317.626953125, 634.59375)" id="classId-Transaction-120" class="node default"><g class="basic label-container"><path style="" fill="#cde498" stroke-width="0" stroke="none" d="M-96.1875 -96.28125 L96.1875 -96.28125 L96.1875 96.28125 L-96.1875 96.28125"></path><path style="" fill="none" stroke-width="1.3" stroke="#13540c" d="M-96.1875 -96.28125 C-54.467735937202086 -96.28125, -12.747971874404172 -96.28125, 96.1875 -96.28125 M-96.1875 -96.28125 C-54.407931347251456 -96.28125, -12.628362694502911 -96.28125, 96.1875 -96.28125 M96.1875 -96.28125 C96.1875 -30.1354421654422, 96.1875 36.0103656691156, 96.1875 96.28125 M96.1875 -96.28125 C96.1875 -44.74897946588558, 96.1875 6.783291068228834, 96.1875 96.28125 M96.1875 96.28125 C29.451757054142917 96.28125, -37.28398589171417 96.28125, -96.1875 96.28125 M96.1875 96.28125 C52.61766659512352 96.28125, 9.047833190247033 96.28125, -96.1875 96.28125 M-96.1875 96.28125 C-96.1875 44.48227841307465, -96.1875 -7.316693173850695, -96.1875 -96.28125 M-96.1875 96.28125 C-96.1875 30.685803327756787, -96.1875 -34.909643344486426, -96.1875 -96.28125"></path></g><g transform="translate(0, -76.28125)" class="annotation-group text"></g><g transform="translate(-43.90625, -76.28125)" class="label-group text"><g transform="translate(0,-9.296875)" style="font-weight: bolder" class="label"><g><rect style="stroke: none" class="background"></rect><text style="" y="-10.1"><tspan font-weight="" dy="1.1em" y="-0.1em" x="0" class="text-outer-tspan"><tspan font-weight="" class="text-inner-tspan" font-style="normal">Transaction</tspan></tspan></text></g></g></g><g transform="translate(-84.1875, -33.6875)" class="members-group text"><g transform="translate(0,-9.296875)" style="" class="label"><g><rect style="stroke: none" class="background"></rect><text style="" y="-10.1"><tspan dy="1.1em" y="-0.1em" x="0" class="text-outer-tspan"><tspan font-weight="normal" class="text-inner-tspan" font-style="normal">-int</tspan><tspan font-weight="normal" class="text-inner-tspan" font-style="normal"> transactionId</tspan></tspan></text></g></g><g transform="translate(0,12.296875)" style="" class="label"><g><rect style="stroke: none" class="background"></rect><text style="" y="-10.1"><tspan dy="1.1em" y="-0.1em" x="0" class="text-outer-tspan"><tspan font-weight="normal" class="text-inner-tspan" font-style="normal">-Date</tspan><tspan font-weight="normal" class="text-inner-tspan" font-style="normal"> date</tspan></tspan></text></g></g><g transform="translate(0,33.890625)" style="" class="label"><g><rect style="stroke: none" class="background"></rect><text style="" y="-10.1"><tspan dy="1.1em" y="-0.1em" x="0" class="text-outer-tspan"><tspan font-weight="normal" class="text-inner-tspan" font-style="normal">-float</tspan><tspan font-weight="normal" class="text-inner-tspan" font-style="normal"> amount</tspan></tspan></text></g></g><g transform="translate(0,55.484375)" style="" class="label"><g><rect style="stroke: none" class="background"></rect><text style="" y="-10.1"><tspan dy="1.1em" y="-0.1em" x="0" class="text-outer-tspan"><tspan font-weight="normal" class="text-inner-tspan" font-style="normal">-String</tspan><tspan font-weight="normal" class="text-inner-tspan" font-style="normal"> type</tspan></tspan></text></g></g></g><g transform="translate(-84.1875, 73.6875)" class="methods-group text"><g transform="translate(0,-9.296875)" style="" class="label"><g><rect style="stroke: none" class="background"></rect><text style="" y="-10.1"><tspan dy="1.1em" y="-0.1em" x="0" class="text-outer-tspan"><tspan font-weight="normal" class="text-inner-tspan" font-style="normal">+execute()</tspan><tspan font-weight="normal" class="text-inner-tspan" font-style="normal"> :</tspan><tspan font-weight="normal" class="text-inner-tspan" font-style="normal"> bool</tspan></tspan></text></g></g></g><g style="" class="divider"><path style="" fill="none" stroke-width="1.3" stroke="#13540c" d="M-96.1875 -53.6875 C-21.331069145007447 -53.6875, 53.525361709985106 -53.6875, 96.1875 -53.6875 M-96.1875 -53.6875 C-53.82906962501179 -53.6875, -11.47063925002358 -53.6875, 96.1875 -53.6875"></path></g><g style="" class="divider"><path style="" fill="none" stroke-width="1.3" stroke="#13540c" d="M-96.1875 53.6875 C-42.324751415746796 53.6875, 11.537997168506408 53.6875, 96.1875 53.6875 M-96.1875 53.6875 C-36.04050815594975 53.6875, 24.106483688100496 53.6875, 96.1875 53.6875"></path></g></g><g transform="translate(487.234375, 93.484375)" id="classId-Customer-121" class="node default"><g class="basic label-container"><path style="" fill="#cde498" stroke-width="0" stroke="none" d="M-149.1953125 -85.484375 L149.1953125 -85.484375 L149.1953125 85.484375 L-149.1953125 85.484375"></path><path style="" fill="none" stroke-width="1.3" stroke="#13540c" d="M-149.1953125 -85.484375 C-48.204458708355105 -85.484375, 52.78639508328979 -85.484375, 149.1953125 -85.484375 M-149.1953125 -85.484375 C-35.57813243690053 -85.484375, 78.03904762619894 -85.484375, 149.1953125 -85.484375 M149.1953125 -85.484375 C149.1953125 -26.88665795262554, 149.1953125 31.71105909474892, 149.1953125 85.484375 M149.1953125 -85.484375 C149.1953125 -31.918465073881876, 149.1953125 21.647444852236248, 149.1953125 85.484375 M149.1953125 85.484375 C38.81780240703043 85.484375, -71.55970768593914 85.484375, -149.1953125 85.484375 M149.1953125 85.484375 C52.45162141118962 85.484375, -44.29206967762076 85.484375, -149.1953125 85.484375 M-149.1953125 85.484375 C-149.1953125 30.7172459338353, -149.1953125 -24.0498831323294, -149.1953125 -85.484375 M-149.1953125 85.484375 C-149.1953125 49.38760833778452, -149.1953125 13.290841675569041, -149.1953125 -85.484375"></path></g><g transform="translate(0, -65.484375)" class="annotation-group text"></g><g transform="translate(-35.65625, -65.484375)" class="label-group text"><g transform="translate(0,-9.296875)" style="font-weight: bolder" class="label"><g><rect style="stroke: none" class="background"></rect><text style="" y="-10.1"><tspan font-weight="" dy="1.1em" y="-0.1em" x="0" class="text-outer-tspan"><tspan font-weight="" class="text-inner-tspan" font-style="normal">Customer</tspan></tspan></text></g></g></g><g transform="translate(-137.1953125, -22.890625)" class="members-group text"><g transform="translate(0,-9.296875)" style="" class="label"><g><rect style="stroke: none" class="background"></rect><text style="" y="-10.1"><tspan dy="1.1em" y="-0.1em" x="0" class="text-outer-tspan"><tspan font-weight="normal" class="text-inner-tspan" font-style="normal">-String</tspan><tspan font-weight="normal" class="text-inner-tspan" font-style="normal"> name</tspan></tspan></text></g></g><g transform="translate(0,12.296875)" style="" class="label"><g><rect style="stroke: none" class="background"></rect><text style="" y="-10.1"><tspan dy="1.1em" y="-0.1em" x="0" class="text-outer-tspan"><tspan font-weight="normal" class="text-inner-tspan" font-style="normal">-String</tspan><tspan font-weight="normal" class="text-inner-tspan" font-style="normal"> email</tspan></tspan></text></g></g></g><g transform="translate(-137.1953125, 41.296875)" class="methods-group text"><g transform="translate(0,-9.296875)" style="" class="label"><g><rect style="stroke: none" class="background"></rect><text style="" y="-10.1"><tspan dy="1.1em" y="-0.1em" x="0" class="text-outer-tspan"><tspan font-weight="normal" class="text-inner-tspan" font-style="normal">+openAccount(accountType)</tspan></tspan></text></g></g><g transform="translate(0,12.296875)" style="" class="label"><g><rect style="stroke: none" class="background"></rect><text style="" y="-10.1"><tspan dy="1.1em" y="-0.1em" x="0" class="text-outer-tspan"><tspan font-weight="normal" class="text-inner-tspan" font-style="normal">+requestTransaction(transaction)</tspan></tspan></text></g></g></g><g style="" class="divider"><path style="" fill="none" stroke-width="1.3" stroke="#13540c" d="M-149.1953125 -42.890625 C-45.890340080764105 -42.890625, 57.41463233847179 -42.890625, 149.1953125 -42.890625 M-149.1953125 -42.890625 C-60.43784136066307 -42.890625, 28.319629778673857 -42.890625, 149.1953125 -42.890625"></path></g><g style="" class="divider"><path style="" fill="none" stroke-width="1.3" stroke="#13540c" d="M-149.1953125 21.296875 C-65.93309953620746 21.296875, 17.32911342758507 21.296875, 149.1953125 21.296875 M-149.1953125 21.296875 C-38.524963595888835 21.296875, 72.14538530822233 21.296875, 149.1953125 21.296875"></path></g></g></g></g></g></svg>