<svg aria-roledescription="stateDiagram" role="graphics-document document" viewBox="-8 -8 1659.2789306640625 622.875" style="max-width: 1659.2789306640625px;" class="statediagram" xmlns="http://www.w3.org/2000/svg" width="100%" id="mermaidSvgId"><style>#mermaidSvgId{font-family:"trebuchet ms",verdana,arial,sans-serif;font-size:16px;fill:#000000;}#mermaidSvgId .error-icon{fill:#552222;}#mermaidSvgId .error-text{fill:#552222;stroke:#552222;}#mermaidSvgId .edge-thickness-normal{stroke-width:1px;}#mermaidSvgId .edge-thickness-thick{stroke-width:3.5px;}#mermaidSvgId .edge-pattern-solid{stroke-dasharray:0;}#mermaidSvgId .edge-thickness-invisible{stroke-width:0;fill:none;}#mermaidSvgId .edge-pattern-dashed{stroke-dasharray:3;}#mermaidSvgId .edge-pattern-dotted{stroke-dasharray:2;}#mermaidSvgId .marker{fill:#000000;stroke:#000000;}#mermaidSvgId .marker.cross{stroke:#000000;}#mermaidSvgId svg{font-family:"trebuchet ms",verdana,arial,sans-serif;font-size:16px;}#mermaidSvgId p{margin:0;}#mermaidSvgId defs #statediagram-barbEnd{fill:#000000;stroke:#000000;}#mermaidSvgId g.stateGroup text{fill:#13540c;stroke:none;font-size:10px;}#mermaidSvgId g.stateGroup text{fill:#000000;stroke:none;font-size:10px;}#mermaidSvgId g.stateGroup .state-title{font-weight:bolder;fill:#321b67;}#mermaidSvgId g.stateGroup rect{fill:#cde498;stroke:#13540c;}#mermaidSvgId g.stateGroup line{stroke:#000000;stroke-width:1;}#mermaidSvgId .transition{stroke:#000000;stroke-width:1;fill:none;}#mermaidSvgId .stateGroup .composit{fill:white;border-bottom:1px;}#mermaidSvgId .stateGroup .alt-composit{fill:#e0e0e0;border-bottom:1px;}#mermaidSvgId .state-note{stroke:#6eaa49;fill:#fff5ad;}#mermaidSvgId .state-note text{fill:black;stroke:none;font-size:10px;}#mermaidSvgId .stateLabel .box{stroke:none;stroke-width:0;fill:#cde498;opacity:0.5;}#mermaidSvgId .edgeLabel .label rect{fill:#cde498;opacity:0.5;}#mermaidSvgId .edgeLabel{background-color:#e8e8e8;text-align:center;}#mermaidSvgId .edgeLabel p{background-color:#e8e8e8;}#mermaidSvgId .edgeLabel rect{opacity:0.5;background-color:#e8e8e8;fill:#e8e8e8;}#mermaidSvgId .edgeLabel .label text{fill:#000000;}#mermaidSvgId .label div .edgeLabel{color:#000000;}#mermaidSvgId .stateLabel text{fill:#321b67;font-size:10px;font-weight:bold;}#mermaidSvgId .node circle.state-start{fill:#000000;stroke:#000000;}#mermaidSvgId .node .fork-join{fill:#000000;stroke:#000000;}#mermaidSvgId .node circle.state-end{fill:hsl(78.1578947368, 18.4615384615%, 64.5098039216%);stroke:white;stroke-width:1.5;}#mermaidSvgId .end-state-inner{fill:white;stroke-width:1.5;}#mermaidSvgId .node rect{fill:#cde498;stroke:#13540c;stroke-width:1px;}#mermaidSvgId .node polygon{fill:#cde498;stroke:#13540c;stroke-width:1px;}#mermaidSvgId #statediagram-barbEnd{fill:#000000;}#mermaidSvgId .statediagram-cluster rect{fill:#cde498;stroke:#13540c;stroke-width:1px;}#mermaidSvgId .cluster-label,#mermaidSvgId .nodeLabel{color:#321b67;}#mermaidSvgId .statediagram-cluster rect.outer{rx:5px;ry:5px;}#mermaidSvgId .statediagram-state .divider{stroke:#13540c;}#mermaidSvgId .statediagram-state .title-state{rx:5px;ry:5px;}#mermaidSvgId .statediagram-cluster.statediagram-cluster .inner{fill:white;}#mermaidSvgId .statediagram-cluster.statediagram-cluster-alt .inner{fill:#f0f0f0;}#mermaidSvgId .statediagram-cluster .inner{rx:0;ry:0;}#mermaidSvgId .statediagram-state rect.basic{rx:5px;ry:5px;}#mermaidSvgId .statediagram-state rect.divider{stroke-dasharray:10,10;fill:#f0f0f0;}#mermaidSvgId .note-edge{stroke-dasharray:5;}#mermaidSvgId .statediagram-note rect{fill:#fff5ad;stroke:#6eaa49;stroke-width:1px;rx:0;ry:0;}#mermaidSvgId .statediagram-note rect{fill:#fff5ad;stroke:#6eaa49;stroke-width:1px;rx:0;ry:0;}#mermaidSvgId .statediagram-note text{fill:black;}#mermaidSvgId .statediagram-note .nodeLabel{color:black;}#mermaidSvgId .statediagram .edgeLabel{color:red;}#mermaidSvgId #dependencyStart,#mermaidSvgId #dependencyEnd{fill:#000000;stroke:#000000;stroke-width:1;}#mermaidSvgId .statediagramTitleText{text-anchor:middle;font-size:18px;fill:#000000;}#mermaidSvgId :root{--mermaid-font-family:"trebuchet ms",verdana,arial,sans-serif;}</style><g><defs><marker orient="auto" markerUnits="userSpaceOnUse" markerHeight="14" markerWidth="20" refY="7" refX="19" id="mermaidSvgId_stateDiagram-barbEnd"><path d="M 19,7 L9,13 L14,7 L9,1 Z"></path></marker></defs><g class="root"><g class="clusters"><g data-look="classic" data-id="Start" id="Start" class="statediagram-state statediagram-cluster"><g><rect data-look="classic" height="425.078125" width="1571.2789182662964" y="8" x="72" class="outer"></rect></g><g transform="translate(840.1316466331482, 6)" class="cluster-label"><text style=""><tspan class="row" x="0" dy="1em" xml:space="preserve">Start</tspan></text></g><rect height="400.484375" width="1571.2789182662964" y="28.59375" x="72" class="inner"></rect></g><g id="TransactionType----parent" class="note-cluster"><rect fill="none" height="153.796875" width="235.71875" y="453.078125" x="495.828125"></rect></g><g data-look="classic" data-id="TransactionType" id="TransactionType" class="statediagram-state statediagram-cluster statediagram-cluster-alt"><g><rect data-look="classic" height="273.78125" width="755.5" y="51" x="406.828125" class="outer"></rect></g><g transform="translate(725.3203125, 49)" class="cluster-label"><text style=""><tspan class="row" x="0" dy="1em" xml:space="preserve">TransactionType</tspan></text></g><rect height="249.1875" width="755.5" y="71.59375" x="406.828125" class="inner"></rect></g></g><g class="edgePaths"><path marker-end="url(#mermaidSvgId_stateDiagram-barbEnd)" style=";fill:none" class="edge-thickness-normal edge-pattern-solid transition" id="edge3" d="M440.54,223.4L445.588,203.383C450.636,183.366,460.732,143.331,469.947,123.314C479.161,103.297,487.495,103.297,505.52,103.297C523.544,103.297,551.26,103.297,565.118,103.297L578.977,103.297"></path><path marker-end="url(#mermaidSvgId_stateDiagram-barbEnd)" style=";fill:none" class="edge-thickness-normal edge-pattern-solid transition" id="edge4" d="M443.052,224.605L447.681,218.486C452.31,212.367,461.569,200.129,470.365,194.01C479.161,187.891,487.495,187.891,503.15,187.891C518.805,187.891,541.781,187.891,553.27,187.891L564.758,187.891"></path><path marker-end="url(#mermaidSvgId_stateDiagram-barbEnd)" style=";fill:none" class="edge-thickness-normal edge-pattern-solid transition" id="edge5" d="M443.052,235.77L447.681,241.889C452.31,248.008,461.569,260.246,470.365,266.365C479.161,272.484,487.495,272.484,504.971,272.484C522.448,272.484,549.068,272.484,562.378,272.484L575.688,272.484"></path><path marker-end="url(#mermaidSvgId_stateDiagram-barbEnd)" style=";fill:none" class="edge-thickness-normal edge-pattern-solid transition" id="edge6" d="M648.398,103.297L662.257,103.297C676.115,103.297,703.831,103.297,738.609,103.297C773.388,103.297,815.229,103.297,859.44,103.297C903.651,103.297,950.232,103.297,973.522,103.297L996.813,103.297"></path><path marker-end="url(#mermaidSvgId_stateDiagram-barbEnd)" style=";fill:none" class="edge-thickness-normal edge-pattern-solid transition" id="edge7" d="M662.617,187.891L674.105,187.891C685.594,187.891,708.57,187.891,740.979,187.891C773.388,187.891,815.229,187.891,857.07,187.891C898.911,187.891,940.753,187.891,961.673,187.891L982.594,187.891"></path><path marker-end="url(#mermaidSvgId_stateDiagram-barbEnd)" style=";fill:none" class="edge-thickness-normal edge-pattern-solid transition" id="edge8" d="M651.688,272.484L664.997,272.484C678.307,272.484,704.927,272.484,739.158,272.484C773.388,272.484,815.229,272.484,858.892,272.484C902.555,272.484,948.039,272.484,970.781,272.484L993.523,272.484"></path><path marker-end="url(#mermaidSvgId_stateDiagram-barbEnd)" style=";fill:none" class="edge-thickness-normal edge-pattern-solid transition" id="edge9" d="M1123.109,103.297L1129.646,103.297C1136.182,103.297,1149.255,103.297,1171.413,103.297C1193.57,103.297,1224.813,103.297,1257.499,114.513C1290.186,125.729,1324.317,148.161,1341.383,159.378L1358.448,170.594"></path><path marker-end="url(#mermaidSvgId_stateDiagram-barbEnd)" style=";fill:none" class="edge-thickness-normal edge-pattern-solid transition" id="edge10" d="M1137.328,187.891L1141.495,187.891C1145.661,187.891,1153.995,187.891,1173.783,187.891C1193.57,187.891,1224.813,187.891,1256.055,187.891C1287.297,187.891,1318.539,187.891,1334.16,187.891L1349.781,187.891"></path><path marker-end="url(#mermaidSvgId_stateDiagram-barbEnd)" style=";fill:none" class="edge-thickness-normal edge-pattern-solid transition" id="edge11" d="M1126.398,272.484L1132.387,272.484C1138.375,272.484,1150.352,272.484,1171.961,272.484C1193.57,272.484,1224.813,272.484,1257.499,261.268C1290.186,250.052,1324.317,227.62,1341.383,216.404L1358.448,205.188"></path><path marker-end="url(#mermaidSvgId_stateDiagram-barbEnd)" style=";fill:none" class="edge-thickness-normal edge-pattern-solid transition" id="edge12" d="M1419.75,187.891L1435.126,187.891C1450.503,187.891,1481.255,187.891,1512.009,187.891C1542.763,187.891,1573.517,187.891,1588.895,187.891L1604.272,187.891"></path><path marker-end="url(#mermaidSvgId_stateDiagram-barbEnd)" style=";fill:none" class="edge-thickness-normal edge-pattern-solid transition" id="edge0" d="M22,230.188L26.167,230.188C30.333,230.188,38.667,230.188,47,230.188C55.333,230.188,63.667,230.188,67.833,230.188L72,230.188"></path><path marker-end="url(#mermaidSvgId_stateDiagram-barbEnd)" style=";fill:none" class="edge-thickness-normal edge-pattern-solid transition" id="edge1" d="M111,230.188L115.167,230.188C119.333,230.188,127.667,230.188,136,230.188C144.333,230.188,152.667,230.188,156.833,230.188L161,230.188"></path><path marker-end="url(#mermaidSvgId_stateDiagram-barbEnd)" style=";fill:none" class="edge-thickness-normal edge-pattern-solid transition" id="edge2" d="M356.828,230.188L360.995,230.188C365.161,230.188,373.495,230.188,381.828,230.188C390.161,230.188,398.495,230.188,402.661,230.188L406.828,230.188"></path><path style=";fill:none" class="edge-thickness-normal edge-pattern-solid transition note-edge" id="TransactionType-TransactionType----note-15" d="M579.021,324.781L592.342,488.078"></path></g><g class="edgeLabels"><g><rect style="stroke: none" class="background"></rect></g><g><rect style="stroke: none" class="background"></rect></g><g><rect style="stroke: none" class="background"></rect></g><g><rect style="stroke: none" class="background"></rect></g><g><rect style="stroke: none" class="background"></rect></g><g><rect style="stroke: none" class="background"></rect></g><g><rect style="stroke: none" class="background"></rect></g><g class="edgeLabel"><g transform="translate(0, 0)" class="label"><text y="-10.1"><tspan dy="1.1em" y="-0.1em" x="0" class="text-outer-tspan"></tspan></text></g></g><g class="edgeLabel"><g transform="translate(0, 0)" class="label"><text y="-10.1"><tspan dy="1.1em" y="-0.1em" x="0" class="text-outer-tspan"></tspan></text></g></g><g class="edgeLabel"><g transform="translate(0, 0)" class="label"><text y="-10.1"><tspan dy="1.1em" y="-0.1em" x="0" class="text-outer-tspan"></tspan></text></g></g><g transform="translate(857.0703125, 103.296875)" class="edgeLabel"><g transform="translate(-100.5234375, -11.296875)" class="label"><g><rect height="22.59375" width="201.046875" y="-1.03125" x="-2" style="" class="background"></rect><text style="" y="-10.1"><tspan dy="1.1em" y="-0.1em" x="0" class="text-outer-tspan"><tspan font-weight="normal" class="text-inner-tspan" font-style="normal">&amp;quot;Enter</tspan><tspan font-weight="normal" class="text-inner-tspan" font-style="normal"> amount&amp;quot;</tspan></tspan></text></g></g></g><g transform="translate(857.0703125, 187.890625)" class="edgeLabel"><g transform="translate(-100.5234375, -11.296875)" class="label"><g><rect height="22.59375" width="201.046875" y="-1.03125" x="-2" style="" class="background"></rect><text style="" y="-10.1"><tspan dy="1.1em" y="-0.1em" x="0" class="text-outer-tspan"><tspan font-weight="normal" class="text-inner-tspan" font-style="normal">&amp;quot;Enter</tspan><tspan font-weight="normal" class="text-inner-tspan" font-style="normal"> amount&amp;quot;</tspan></tspan></text></g></g></g><g transform="translate(857.0703125, 272.484375)" class="edgeLabel"><g transform="translate(-91.0859375, -20.09375)" class="label"><g><rect height="40.1875" width="182.171875" y="-1.03125" x="-2" style="" class="background"></rect><text style="" y="-10.1"><tspan dy="1.1em" y="-0.1em" x="0" class="text-outer-tspan"><tspan font-weight="normal" class="text-inner-tspan" font-style="normal">&amp;quot;Enter</tspan><tspan font-weight="normal" class="text-inner-tspan" font-style="normal"> amount</tspan><tspan font-weight="normal" class="text-inner-tspan" font-style="normal"> and</tspan></tspan><tspan dy="1.1em" y="1em" x="0" class="text-outer-tspan"><tspan font-weight="normal" class="text-inner-tspan" font-style="normal">recipient&amp;quot;</tspan></tspan></text></g></g></g><g transform="translate(1256.0546875, 103.296875)" class="edgeLabel"><g transform="translate(-68.7265625, -20.09375)" class="label"><g><rect height="40.1875" width="137.453125" y="-1.03125" x="-2" style="" class="background"></rect><text style="" y="-10.1"><tspan dy="1.1em" y="-0.1em" x="0" class="text-outer-tspan"><tspan font-weight="normal" class="text-inner-tspan" font-style="normal">&amp;quot;Transaction</tspan></tspan><tspan dy="1.1em" y="1em" x="0" class="text-outer-tspan"><tspan font-weight="normal" class="text-inner-tspan" font-style="normal">completed&amp;quot;</tspan></tspan></text></g></g></g><g transform="translate(1256.0546875, 187.890625)" class="edgeLabel"><g transform="translate(-68.7265625, -20.09375)" class="label"><g><rect height="40.1875" width="137.453125" y="-1.03125" x="-2" style="" class="background"></rect><text style="" y="-10.1"><tspan dy="1.1em" y="-0.1em" x="0" class="text-outer-tspan"><tspan font-weight="normal" class="text-inner-tspan" font-style="normal">&amp;quot;Transaction</tspan></tspan><tspan dy="1.1em" y="1em" x="0" class="text-outer-tspan"><tspan font-weight="normal" class="text-inner-tspan" font-style="normal">completed&amp;quot;</tspan></tspan></text></g></g></g><g transform="translate(1256.0546875, 272.484375)" class="edgeLabel"><g transform="translate(-68.7265625, -20.09375)" class="label"><g><rect height="40.1875" width="137.453125" y="-1.03125" x="-2" style="" class="background"></rect><text style="" y="-10.1"><tspan dy="1.1em" y="-0.1em" x="0" class="text-outer-tspan"><tspan font-weight="normal" class="text-inner-tspan" font-style="normal">&amp;quot;Transaction</tspan></tspan><tspan dy="1.1em" y="1em" x="0" class="text-outer-tspan"><tspan font-weight="normal" class="text-inner-tspan" font-style="normal">completed&amp;quot;</tspan></tspan></text></g></g></g><g transform="translate(1512.0078125, 187.890625)" class="edgeLabel"><g transform="translate(-67.2578125, -20.09375)" class="label"><g><rect height="40.1875" width="134.515625" y="-1.03125" x="-2" style="" class="background"></rect><text style="" y="-10.1"><tspan dy="1.1em" y="-0.1em" x="0" class="text-outer-tspan"><tspan font-weight="normal" class="text-inner-tspan" font-style="normal">&amp;quot;Finish</tspan></tspan><tspan dy="1.1em" y="1em" x="0" class="text-outer-tspan"><tspan font-weight="normal" class="text-inner-tspan" font-style="normal">transaction&amp;quot;</tspan></tspan></text></g></g></g><g class="edgeLabel"><g transform="translate(0, 0)" class="label"><text y="-10.1"><tspan dy="1.1em" y="-0.1em" x="0" class="text-outer-tspan"></tspan></text></g></g><g class="edgeLabel"><g transform="translate(0, 0)" class="label"><text y="-10.1"><tspan dy="1.1em" y="-0.1em" x="0" class="text-outer-tspan"></tspan></text></g></g><g class="edgeLabel"><g transform="translate(0, 0)" class="label"><text y="-10.1"><tspan dy="1.1em" y="-0.1em" x="0" class="text-outer-tspan"></tspan></text></g></g><g class="edgeLabel"><g transform="translate(0, 0)" class="label"><text y="-10.1"><tspan dy="1.1em" y="-0.1em" x="0" class="text-outer-tspan"></tspan></text></g></g></g><g class="nodes"><g transform="translate(15, 230.1875)" id="state-root_start-0" class="node default"><circle height="14" width="14" r="7" class="state-start"></circle></g><g transform="translate(104, 230.1875)" id="state-Start_start-1" class="node default"><circle height="14" width="14" r="7" class="state-start"></circle></g><g transform="translate(153, 54.296875)" class="root"><g class="clusters"><g data-look="classic" data-id="AccountSelection" id="AccountSelection" class="statediagram-state statediagram-cluster"><g><rect data-look="classic" height="327.78125190734863" width="187.828125" y="8" x="8" class="outer"></rect></g><g transform="translate(40.0546875, 6)" class="cluster-label"><text style=""><tspan class="row" x="0" dy="1em" xml:space="preserve">AccountSelection</tspan></text></g><rect height="303.18750190734863" width="187.828125" y="28.59375" x="8" class="inner"></rect></g></g><g class="edgePaths"><path marker-end="url(#mermaidSvgId_stateDiagram-barbEnd)" style=";fill:none" class="edge-thickness-normal edge-pattern-solid transition" id="edge13" d="M101.914,59.5L101.914,65.75C101.914,72,101.914,84.5,101.914,97C101.914,109.5,101.914,122,101.914,128.25L101.914,134.5"></path><path marker-end="url(#mermaidSvgId_stateDiagram-barbEnd)" style=";fill:none" class="edge-thickness-normal edge-pattern-solid transition" id="edge14" d="M101.914,169.094L101.914,178.693C101.914,188.292,101.914,207.49,101.914,226.688C101.914,245.885,101.914,265.083,101.914,274.682L101.914,284.281"></path></g><g class="edgeLabels"><g><rect style="stroke: none" class="background"></rect></g><g class="edgeLabel"><g transform="translate(0, 0)" class="label"><text y="-10.1"><tspan dy="1.1em" y="-0.1em" x="0" class="text-outer-tspan"></tspan></text></g></g><g transform="translate(101.9140625, 226.6875)" class="edgeLabel"><g transform="translate(-57.15625, -20.09375)" class="label"><g><rect height="40.1875" width="114.3125" y="-1.03125" x="-2" style="" class="background"></rect><text style="" y="-10.1"><tspan dy="1.1em" y="-0.1em" x="0" class="text-outer-tspan"><tspan font-weight="normal" class="text-inner-tspan" font-style="normal">&amp;quot;Account</tspan></tspan><tspan dy="1.1em" y="1em" x="0" class="text-outer-tspan"><tspan font-weight="normal" class="text-inner-tspan" font-style="normal">selected&amp;quot;</tspan></tspan></text></g></g></g></g><g class="nodes"><g transform="translate(101.9140625, 52.5)" id="state-AccountSelection_start-13" class="node default"><circle height="14" width="14" r="7" class="state-start"></circle></g><g transform="translate(101.9140625, 151.796875)" id="state-SelectAccount-14" class="node  statediagram-state"><rect height="34.59375" width="117.828125" y="-17.296875" x="-58.9140625" ry="5" rx="5" style="" class="basic label-container"></rect><g transform="translate(-50.9140625, -9.296875)" style="" class="label"><rect></rect><g><rect style="stroke: none" class="background"></rect><text style="" y="-10.1"><tspan dy="1.1em" y="-0.1em" x="0" class="text-outer-tspan"><tspan font-weight="normal" class="text-inner-tspan" font-style="normal">SelectAccount</tspan></tspan></text></g></g></g><g transform="translate(101.9140625, 291.2812509536743)" id="state-AccountSelection_end-14" class="node default"><g><path style="" fill="#cde498" stroke-width="0" stroke="none" d="M7 0 C7 0.40517908122283747, 6.964012880168563 0.816513743121899, 6.893654271085456 1.2155372436685123 C6.823295662002349 1.6145607442151257, 6.716427752933756 2.013397210557766, 6.5778483455013586 2.394141003279681 C6.439268938068961 2.7748847960015954, 6.26476736710249 3.149104622578984, 6.062177826491071 3.4999999999999996 C5.859588285879653 3.8508953774210153, 5.622755194947063 4.189128084166967, 5.362311101832846 4.499513267805774 C5.10186700871863 4.809898451444582, 4.809898451444583 5.10186700871863, 4.499513267805775 5.362311101832846 C4.189128084166968 5.622755194947063, 3.8508953774210166 5.859588285879652, 3.500000000000001 6.06217782649107 C3.149104622578985 6.264767367102489, 2.7748847960015963 6.439268938068961, 2.3941410032796817 6.5778483455013586 C2.013397210557767 6.716427752933756, 1.6145607442151264 6.823295662002349, 1.2155372436685128 6.893654271085456 C0.8165137431218992 6.964012880168563, 0.4051790812228379 7, 4.286263797015736e-16 7 C-0.405179081222837 7, -0.8165137431218985 6.964012880168563, -1.2155372436685121 6.893654271085456 C-1.6145607442151257 6.823295662002349, -2.013397210557766 6.716427752933756, -2.394141003279681 6.5778483455013586 C-2.7748847960015954 6.439268938068961, -3.1491046225789834 6.26476736710249, -3.4999999999999987 6.062177826491071 C-3.850895377421014 5.859588285879653, -4.189128084166966 5.6227551949470636, -4.499513267805773 5.362311101832848 C-4.809898451444581 5.101867008718632, -5.101867008718627 4.809898451444586, -5.362311101832843 4.499513267805779 C-5.622755194947058 4.189128084166971, -5.859588285879649 3.8508953774210206, -6.062177826491068 3.5000000000000053 C-6.264767367102486 3.14910462257899, -6.439268938068958 2.774884796001602, -6.577848345501356 2.394141003279688 C-6.716427752933754 2.0133972105577738, -6.823295662002347 1.614560744215134, -6.893654271085454 1.215537243668521 C-6.9640128801685615 0.816513743121908, -6.999999999999999 0.4051790812228472, -7 1.0183126166254463e-14 C-7.000000000000001 -0.40517908122282686, -6.964012880168565 -0.8165137431218878, -6.893654271085459 -1.215537243668501 C-6.823295662002352 -1.6145607442151142, -6.716427752933759 -2.0133972105577542, -6.577848345501363 -2.394141003279669 C-6.439268938068967 -2.7748847960015834, -6.264767367102496 -3.149104622578972, -6.062177826491078 -3.4999999999999876 C-5.859588285879661 -3.8508953774210033, -5.6227551949470715 -4.1891280841669545, -5.362311101832856 -4.499513267805763 C-5.10186700871864 -4.809898451444571, -4.809898451444594 -5.10186700871862, -4.499513267805787 -5.362311101832836 C-4.189128084166979 -5.622755194947053, -3.850895377421028 -5.859588285879644, -3.5000000000000133 -6.062177826491063 C-3.1491046225789985 -6.264767367102483, -2.774884796001611 -6.439268938068955, -2.3941410032796973 -6.577848345501353 C-2.0133972105577835 -6.716427752933751, -1.6145607442151435 -6.823295662002345, -1.2155372436685306 -6.893654271085453 C-0.8165137431219176 -6.9640128801685615, -0.40517908122285695 -6.999999999999999, -1.9937625952807352e-14 -7 C0.4051790812228171 -7.000000000000001, 0.8165137431218781 -6.964012880168565, 1.2155372436684913 -6.89365427108546 C1.6145607442151044 -6.823295662002354, 2.013397210557745 -6.716427752933763, 2.3941410032796595 -6.5778483455013665 C2.774884796001574 -6.43926893806897, 3.149104622578963 -6.2647673671025, 3.499999999999979 -6.062177826491083 C3.8508953774209953 -5.859588285879665, 4.189128084166947 -5.622755194947077, 4.499513267805756 -5.362311101832862 C4.809898451444564 -5.1018670087186475, 5.101867008718613 -4.809898451444602, 5.362311101832829 -4.499513267805796 C5.622755194947046 -4.189128084166989, 5.859588285879637 -3.8508953774210393, 6.062177826491056 -3.500000000000025 C6.2647673671024755 -3.1491046225790105, 6.439268938068949 -2.774884796001623, 6.577848345501348 -2.3941410032797092 C6.716427752933747 -2.0133972105577955, 6.823295662002342 -1.6145607442151562, 6.893654271085451 -1.2155372436685434 C6.96401288016856 -0.8165137431219307, 6.982275711847575 -0.2025895406114567, 7 -3.2800750208310675e-14 C7.017724288152425 0.2025895406113911, 7.017724288152424 -0.2025895406114242, 7 0"></path><path style="" fill="none" stroke-width="2" stroke="#000000" d="M7 0 C7 0.40517908122283747, 6.964012880168563 0.816513743121899, 6.893654271085456 1.2155372436685123 C6.823295662002349 1.6145607442151257, 6.716427752933756 2.013397210557766, 6.5778483455013586 2.394141003279681 C6.439268938068961 2.7748847960015954, 6.26476736710249 3.149104622578984, 6.062177826491071 3.4999999999999996 C5.859588285879653 3.8508953774210153, 5.622755194947063 4.189128084166967, 5.362311101832846 4.499513267805774 C5.10186700871863 4.809898451444582, 4.809898451444583 5.10186700871863, 4.499513267805775 5.362311101832846 C4.189128084166968 5.622755194947063, 3.8508953774210166 5.859588285879652, 3.500000000000001 6.06217782649107 C3.149104622578985 6.264767367102489, 2.7748847960015963 6.439268938068961, 2.3941410032796817 6.5778483455013586 C2.013397210557767 6.716427752933756, 1.6145607442151264 6.823295662002349, 1.2155372436685128 6.893654271085456 C0.8165137431218992 6.964012880168563, 0.4051790812228379 7, 4.286263797015736e-16 7 C-0.405179081222837 7, -0.8165137431218985 6.964012880168563, -1.2155372436685121 6.893654271085456 C-1.6145607442151257 6.823295662002349, -2.013397210557766 6.716427752933756, -2.394141003279681 6.5778483455013586 C-2.7748847960015954 6.439268938068961, -3.1491046225789834 6.26476736710249, -3.4999999999999987 6.062177826491071 C-3.850895377421014 5.859588285879653, -4.189128084166966 5.6227551949470636, -4.499513267805773 5.362311101832848 C-4.809898451444581 5.101867008718632, -5.101867008718627 4.809898451444586, -5.362311101832843 4.499513267805779 C-5.622755194947058 4.189128084166971, -5.859588285879649 3.8508953774210206, -6.062177826491068 3.5000000000000053 C-6.264767367102486 3.14910462257899, -6.439268938068958 2.774884796001602, -6.577848345501356 2.394141003279688 C-6.716427752933754 2.0133972105577738, -6.823295662002347 1.614560744215134, -6.893654271085454 1.215537243668521 C-6.9640128801685615 0.816513743121908, -6.999999999999999 0.4051790812228472, -7 1.0183126166254463e-14 C-7.000000000000001 -0.40517908122282686, -6.964012880168565 -0.8165137431218878, -6.893654271085459 -1.215537243668501 C-6.823295662002352 -1.6145607442151142, -6.716427752933759 -2.0133972105577542, -6.577848345501363 -2.394141003279669 C-6.439268938068967 -2.7748847960015834, -6.264767367102496 -3.149104622578972, -6.062177826491078 -3.4999999999999876 C-5.859588285879661 -3.8508953774210033, -5.6227551949470715 -4.1891280841669545, -5.362311101832856 -4.499513267805763 C-5.10186700871864 -4.809898451444571, -4.809898451444594 -5.10186700871862, -4.499513267805787 -5.362311101832836 C-4.189128084166979 -5.622755194947053, -3.850895377421028 -5.859588285879644, -3.5000000000000133 -6.062177826491063 C-3.1491046225789985 -6.264767367102483, -2.774884796001611 -6.439268938068955, -2.3941410032796973 -6.577848345501353 C-2.0133972105577835 -6.716427752933751, -1.6145607442151435 -6.823295662002345, -1.2155372436685306 -6.893654271085453 C-0.8165137431219176 -6.9640128801685615, -0.40517908122285695 -6.999999999999999, -1.9937625952807352e-14 -7 C0.4051790812228171 -7.000000000000001, 0.8165137431218781 -6.964012880168565, 1.2155372436684913 -6.89365427108546 C1.6145607442151044 -6.823295662002354, 2.013397210557745 -6.716427752933763, 2.3941410032796595 -6.5778483455013665 C2.774884796001574 -6.43926893806897, 3.149104622578963 -6.2647673671025, 3.499999999999979 -6.062177826491083 C3.8508953774209953 -5.859588285879665, 4.189128084166947 -5.622755194947077, 4.499513267805756 -5.362311101832862 C4.809898451444564 -5.1018670087186475, 5.101867008718613 -4.809898451444602, 5.362311101832829 -4.499513267805796 C5.622755194947046 -4.189128084166989, 5.859588285879637 -3.8508953774210393, 6.062177826491056 -3.500000000000025 C6.2647673671024755 -3.1491046225790105, 6.439268938068949 -2.774884796001623, 6.577848345501348 -2.3941410032797092 C6.716427752933747 -2.0133972105577955, 6.823295662002342 -1.6145607442151562, 6.893654271085451 -1.2155372436685434 C6.96401288016856 -0.8165137431219307, 6.982275711847575 -0.2025895406114567, 7 -3.2800750208310675e-14 C7.017724288152425 0.2025895406113911, 7.017724288152424 -0.2025895406114242, 7 0"></path><g><path style="" fill="#13540c" stroke-width="0" stroke="none" d="M2.5 0 C2.5 0.14470681472244193, 2.487147457203058 0.29161205111496386, 2.46201938253052 0.4341204441673258 C2.436891307857982 0.5766288372196877, 2.3987241974763416 0.7190704323420595, 2.3492315519647713 0.8550503583141718 C2.299738906453201 0.991030284286284, 2.2374169168223177 1.124680222349637, 2.165063509461097 1.2499999999999998 C2.092710102099876 1.3753197776503625, 2.0081268553382365 1.496117172916774, 1.915111107797445 1.6069690242163481 C1.8220953602566536 1.7178208755159223, 1.7178208755159226 1.8220953602566536, 1.6069690242163484 1.915111107797445 C1.4961171729167742 2.0081268553382365, 1.375319777650363 2.0927101020998755, 1.2500000000000002 2.1650635094610964 C1.1246802223496375 2.2374169168223172, 0.9910302842862845 2.2997389064532, 0.8550503583141721 2.349231551964771 C0.7190704323420597 2.3987241974763416, 0.576628837219688 2.436891307857982, 0.43412044416732604 2.46201938253052 C0.291612051114964 2.487147457203058, 0.14470681472244212 2.5, 1.5308084989341916e-16 2.5 C-0.1447068147224418 2.5, -0.2916120511149638 2.487147457203058, -0.43412044416732576 2.46201938253052 C-0.5766288372196877 2.436891307857982, -0.7190704323420595 2.3987241974763416, -0.8550503583141718 2.3492315519647713 C-0.991030284286284 2.299738906453201, -1.124680222349637 2.2374169168223177, -1.2499999999999996 2.165063509461097 C-1.375319777650362 2.092710102099876, -1.4961171729167735 2.008126855338237, -1.6069690242163475 1.9151111077974459 C-1.7178208755159214 1.8220953602566548, -1.8220953602566525 1.7178208755159234, -1.9151111077974439 1.6069690242163495 C-2.008126855338235 1.4961171729167755, -2.0927101020998746 1.3753197776503645, -2.1650635094610955 1.250000000000002 C-2.2374169168223164 1.1246802223496395, -2.2997389064531992 0.9910302842862865, -2.34923155196477 0.8550503583141743 C-2.3987241974763407 0.7190704323420621, -2.436891307857981 0.5766288372196907, -2.4620193825305194 0.434120444167329 C-2.487147457203058 0.29161205111496724, -2.5 0.14470681472244545, -2.5 3.636830773662308e-15 C-2.5 -0.14470681472243818, -2.4871474572030587 -0.2916120511149599, -2.4620193825305208 -0.4341204441673218 C-2.436891307857983 -0.5766288372196837, -2.398724197476343 -0.7190704323420553, -2.3492315519647726 -0.8550503583141675 C-2.2997389064532023 -0.9910302842862798, -2.23741691682232 -1.1246802223496328, -2.165063509461099 -1.2499999999999956 C-2.092710102099878 -1.3753197776503583, -2.00812685533824 -1.4961171729167695, -1.9151111077974488 -1.606969024216344 C-1.8220953602566576 -1.7178208755159183, -1.7178208755159263 -1.8220953602566499, -1.6069690242163523 -1.9151111077974416 C-1.4961171729167784 -2.0081268553382334, -1.3753197776503672 -2.092710102099873, -1.2500000000000047 -2.165063509461094 C-1.1246802223496422 -2.2374169168223155, -0.9910302842862897 -2.299738906453198, -0.8550503583141776 -2.3492315519647686 C-0.7190704323420656 -2.3987241974763394, -0.5766288372196942 -2.4368913078579806, -0.43412044416733236 -2.462019382530519 C-0.29161205111497057 -2.4871474572030574, -0.1447068147224489 -2.4999999999999996, -7.120580697431198e-15 -2.5 C0.14470681472243463 -2.5000000000000004, 0.29161205111495647 -2.487147457203059, 0.4341204441673183 -2.4620193825305217 C0.5766288372196802 -2.436891307857984, 0.7190704323420518 -2.3987241974763442, 0.8550503583141642 -2.349231551964774 C0.9910302842862766 -2.2997389064532037, 1.1246802223496295 -2.2374169168223212, 1.2499999999999925 -2.165063509461101 C1.3753197776503554 -2.0927101020998804, 1.4961171729167668 -2.008126855338242, 1.6069690242163412 -1.915111107797451 C1.7178208755159157 -1.82209536025666, 1.8220953602566472 -1.7178208755159294, 1.915111107797439 -1.6069690242163557 C2.0081268553382308 -1.496117172916782, 2.09271010209987 -1.3753197776503712, 2.1650635094610915 -1.2500000000000089 C2.237416916822313 -1.1246802223496466, 2.299738906453196 -0.9910302842862939, 2.3492315519647673 -0.855050358314182 C2.3987241974763385 -0.71907043234207, 2.4368913078579792 -0.5766288372196986, 2.462019382530518 -0.4341204441673369 C2.487147457203057 -0.29161205111497523, 2.4936698970884197 -0.07235340736123454, 2.5 -1.1714553645825241e-14 C2.5063301029115803 0.07235340736121111, 2.50633010291158 -0.07235340736122292, 2.5 0"></path><path style="" fill="none" stroke-width="2" stroke="#13540c" d="M2.5 0 C2.5 0.14470681472244193, 2.487147457203058 0.29161205111496386, 2.46201938253052 0.4341204441673258 C2.436891307857982 0.5766288372196877, 2.3987241974763416 0.7190704323420595, 2.3492315519647713 0.8550503583141718 C2.299738906453201 0.991030284286284, 2.2374169168223177 1.124680222349637, 2.165063509461097 1.2499999999999998 C2.092710102099876 1.3753197776503625, 2.0081268553382365 1.496117172916774, 1.915111107797445 1.6069690242163481 C1.8220953602566536 1.7178208755159223, 1.7178208755159226 1.8220953602566536, 1.6069690242163484 1.915111107797445 C1.4961171729167742 2.0081268553382365, 1.375319777650363 2.0927101020998755, 1.2500000000000002 2.1650635094610964 C1.1246802223496375 2.2374169168223172, 0.9910302842862845 2.2997389064532, 0.8550503583141721 2.349231551964771 C0.7190704323420597 2.3987241974763416, 0.576628837219688 2.436891307857982, 0.43412044416732604 2.46201938253052 C0.291612051114964 2.487147457203058, 0.14470681472244212 2.5, 1.5308084989341916e-16 2.5 C-0.1447068147224418 2.5, -0.2916120511149638 2.487147457203058, -0.43412044416732576 2.46201938253052 C-0.5766288372196877 2.436891307857982, -0.7190704323420595 2.3987241974763416, -0.8550503583141718 2.3492315519647713 C-0.991030284286284 2.299738906453201, -1.124680222349637 2.2374169168223177, -1.2499999999999996 2.165063509461097 C-1.375319777650362 2.092710102099876, -1.4961171729167735 2.008126855338237, -1.6069690242163475 1.9151111077974459 C-1.7178208755159214 1.8220953602566548, -1.8220953602566525 1.7178208755159234, -1.9151111077974439 1.6069690242163495 C-2.008126855338235 1.4961171729167755, -2.0927101020998746 1.3753197776503645, -2.1650635094610955 1.250000000000002 C-2.2374169168223164 1.1246802223496395, -2.2997389064531992 0.9910302842862865, -2.34923155196477 0.8550503583141743 C-2.3987241974763407 0.7190704323420621, -2.436891307857981 0.5766288372196907, -2.4620193825305194 0.434120444167329 C-2.487147457203058 0.29161205111496724, -2.5 0.14470681472244545, -2.5 3.636830773662308e-15 C-2.5 -0.14470681472243818, -2.4871474572030587 -0.2916120511149599, -2.4620193825305208 -0.4341204441673218 C-2.436891307857983 -0.5766288372196837, -2.398724197476343 -0.7190704323420553, -2.3492315519647726 -0.8550503583141675 C-2.2997389064532023 -0.9910302842862798, -2.23741691682232 -1.1246802223496328, -2.165063509461099 -1.2499999999999956 C-2.092710102099878 -1.3753197776503583, -2.00812685533824 -1.4961171729167695, -1.9151111077974488 -1.606969024216344 C-1.8220953602566576 -1.7178208755159183, -1.7178208755159263 -1.8220953602566499, -1.6069690242163523 -1.9151111077974416 C-1.4961171729167784 -2.0081268553382334, -1.3753197776503672 -2.092710102099873, -1.2500000000000047 -2.165063509461094 C-1.1246802223496422 -2.2374169168223155, -0.9910302842862897 -2.299738906453198, -0.8550503583141776 -2.3492315519647686 C-0.7190704323420656 -2.3987241974763394, -0.5766288372196942 -2.4368913078579806, -0.43412044416733236 -2.462019382530519 C-0.29161205111497057 -2.4871474572030574, -0.1447068147224489 -2.4999999999999996, -7.120580697431198e-15 -2.5 C0.14470681472243463 -2.5000000000000004, 0.29161205111495647 -2.487147457203059, 0.4341204441673183 -2.4620193825305217 C0.5766288372196802 -2.436891307857984, 0.7190704323420518 -2.3987241974763442, 0.8550503583141642 -2.349231551964774 C0.9910302842862766 -2.2997389064532037, 1.1246802223496295 -2.2374169168223212, 1.2499999999999925 -2.165063509461101 C1.3753197776503554 -2.0927101020998804, 1.4961171729167668 -2.008126855338242, 1.6069690242163412 -1.915111107797451 C1.7178208755159157 -1.82209536025666, 1.8220953602566472 -1.7178208755159294, 1.915111107797439 -1.6069690242163557 C2.0081268553382308 -1.496117172916782, 2.09271010209987 -1.3753197776503712, 2.1650635094610915 -1.2500000000000089 C2.237416916822313 -1.1246802223496466, 2.299738906453196 -0.9910302842862939, 2.3492315519647673 -0.855050358314182 C2.3987241974763385 -0.71907043234207, 2.4368913078579792 -0.5766288372196986, 2.462019382530518 -0.4341204441673369 C2.487147457203057 -0.29161205111497523, 2.4936698970884197 -0.07235340736123454, 2.5 -1.1714553645825241e-14 C2.5063301029115803 0.07235340736121111, 2.50633010291158 -0.07235340736122292, 2.5 0"></path></g></g></g></g></g><g transform="translate(438.828125, 230.1875)" id="state-TransactionType_start-5" class="node default"><circle height="14" width="14" r="7" class="state-start"></circle></g><g transform="translate(613.6875, 103.296875)" id="state-Deposit-6" class="node  statediagram-state"><rect height="34.59375" width="69.421875" y="-17.296875" x="-34.7109375" ry="5" rx="5" style="" class="basic label-container"></rect><g transform="translate(-26.7109375, -9.296875)" style="" class="label"><rect></rect><g><rect style="stroke: none" class="background"></rect><text style="" y="-10.1"><tspan dy="1.1em" y="-0.1em" x="0" class="text-outer-tspan"><tspan font-weight="normal" class="text-inner-tspan" font-style="normal">Deposit</tspan></tspan></text></g></g></g><g transform="translate(613.6875, 187.890625)" id="state-Withdrawal-7" class="node  statediagram-state"><rect height="34.59375" width="97.859375" y="-17.296875" x="-48.9296875" ry="5" rx="5" style="" class="basic label-container"></rect><g transform="translate(-40.9296875, -9.296875)" style="" class="label"><rect></rect><g><rect style="stroke: none" class="background"></rect><text style="" y="-10.1"><tspan dy="1.1em" y="-0.1em" x="0" class="text-outer-tspan"><tspan font-weight="normal" class="text-inner-tspan" font-style="normal">Withdrawal</tspan></tspan></text></g></g></g><g transform="translate(613.6875, 272.484375)" id="state-Transfer-8" class="node  statediagram-state"><rect height="34.59375" width="76" y="-17.296875" x="-38" ry="5" rx="5" style="" class="basic label-container"></rect><g transform="translate(-30, -9.296875)" style="" class="label"><rect></rect><g><rect style="stroke: none" class="background"></rect><text style="" y="-10.1"><tspan dy="1.1em" y="-0.1em" x="0" class="text-outer-tspan"><tspan font-weight="normal" class="text-inner-tspan" font-style="normal">Transfer</tspan></tspan></text></g></g></g><g transform="translate(1059.9609375, 103.296875)" id="state-ConfirmDeposit-9" class="node  statediagram-state"><rect height="34.59375" width="126.296875" y="-17.296875" x="-63.1484375" ry="5" rx="5" style="" class="basic label-container"></rect><g transform="translate(-55.1484375, -9.296875)" style="" class="label"><rect></rect><g><rect style="stroke: none" class="background"></rect><text style="" y="-10.1"><tspan dy="1.1em" y="-0.1em" x="0" class="text-outer-tspan"><tspan font-weight="normal" class="text-inner-tspan" font-style="normal">ConfirmDeposit</tspan></tspan></text></g></g></g><g transform="translate(1059.9609375, 187.890625)" id="state-ConfirmWithdrawal-10" class="node  statediagram-state"><rect height="34.59375" width="154.734375" y="-17.296875" x="-77.3671875" ry="5" rx="5" style="" class="basic label-container"></rect><g transform="translate(-69.3671875, -9.296875)" style="" class="label"><rect></rect><g><rect style="stroke: none" class="background"></rect><text style="" y="-10.1"><tspan dy="1.1em" y="-0.1em" x="0" class="text-outer-tspan"><tspan font-weight="normal" class="text-inner-tspan" font-style="normal">ConfirmWithdrawal</tspan></tspan></text></g></g></g><g transform="translate(1059.9609375, 272.484375)" id="state-ConfirmTransfer-11" class="node  statediagram-state"><rect height="34.59375" width="132.875" y="-17.296875" x="-66.4375" ry="5" rx="5" style="" class="basic label-container"></rect><g transform="translate(-58.4375, -9.296875)" style="" class="label"><rect></rect><g><rect style="stroke: none" class="background"></rect><text style="" y="-10.1"><tspan dy="1.1em" y="-0.1em" x="0" class="text-outer-tspan"><tspan font-weight="normal" class="text-inner-tspan" font-style="normal">ConfirmTransfer</tspan></tspan></text></g></g></g><g transform="translate(1384.765625, 187.890625)" id="state-Success-12" class="node  statediagram-state"><rect height="34.59375" width="69.96875" y="-17.296875" x="-34.984375" ry="5" rx="5" style="" class="basic label-container"></rect><g transform="translate(-26.984375, -9.296875)" style="" class="label"><rect></rect><g><rect style="stroke: none" class="background"></rect><text style="" y="-10.1"><tspan dy="1.1em" y="-0.1em" x="0" class="text-outer-tspan"><tspan font-weight="normal" class="text-inner-tspan" font-style="normal">Success</tspan></tspan></text></g></g></g><g transform="translate(1611.2722716331482, 187.890625)" id="state-Start_end-12" class="node default"><g><path style="" fill="#cde498" stroke-width="0" stroke="none" d="M7 0 C7 0.40517908122283747, 6.964012880168563 0.816513743121899, 6.893654271085456 1.2155372436685123 C6.823295662002349 1.6145607442151257, 6.716427752933756 2.013397210557766, 6.5778483455013586 2.394141003279681 C6.439268938068961 2.7748847960015954, 6.26476736710249 3.149104622578984, 6.062177826491071 3.4999999999999996 C5.859588285879653 3.8508953774210153, 5.622755194947063 4.189128084166967, 5.362311101832846 4.499513267805774 C5.10186700871863 4.809898451444582, 4.809898451444583 5.10186700871863, 4.499513267805775 5.362311101832846 C4.189128084166968 5.622755194947063, 3.8508953774210166 5.859588285879652, 3.500000000000001 6.06217782649107 C3.149104622578985 6.264767367102489, 2.7748847960015963 6.439268938068961, 2.3941410032796817 6.5778483455013586 C2.013397210557767 6.716427752933756, 1.6145607442151264 6.823295662002349, 1.2155372436685128 6.893654271085456 C0.8165137431218992 6.964012880168563, 0.4051790812228379 7, 4.286263797015736e-16 7 C-0.405179081222837 7, -0.8165137431218985 6.964012880168563, -1.2155372436685121 6.893654271085456 C-1.6145607442151257 6.823295662002349, -2.013397210557766 6.716427752933756, -2.394141003279681 6.5778483455013586 C-2.7748847960015954 6.439268938068961, -3.1491046225789834 6.26476736710249, -3.4999999999999987 6.062177826491071 C-3.850895377421014 5.859588285879653, -4.189128084166966 5.6227551949470636, -4.499513267805773 5.362311101832848 C-4.809898451444581 5.101867008718632, -5.101867008718627 4.809898451444586, -5.362311101832843 4.499513267805779 C-5.622755194947058 4.189128084166971, -5.859588285879649 3.8508953774210206, -6.062177826491068 3.5000000000000053 C-6.264767367102486 3.14910462257899, -6.439268938068958 2.774884796001602, -6.577848345501356 2.394141003279688 C-6.716427752933754 2.0133972105577738, -6.823295662002347 1.614560744215134, -6.893654271085454 1.215537243668521 C-6.9640128801685615 0.816513743121908, -6.999999999999999 0.4051790812228472, -7 1.0183126166254463e-14 C-7.000000000000001 -0.40517908122282686, -6.964012880168565 -0.8165137431218878, -6.893654271085459 -1.215537243668501 C-6.823295662002352 -1.6145607442151142, -6.716427752933759 -2.0133972105577542, -6.577848345501363 -2.394141003279669 C-6.439268938068967 -2.7748847960015834, -6.264767367102496 -3.149104622578972, -6.062177826491078 -3.4999999999999876 C-5.859588285879661 -3.8508953774210033, -5.6227551949470715 -4.1891280841669545, -5.362311101832856 -4.499513267805763 C-5.10186700871864 -4.809898451444571, -4.809898451444594 -5.10186700871862, -4.499513267805787 -5.362311101832836 C-4.189128084166979 -5.622755194947053, -3.850895377421028 -5.859588285879644, -3.5000000000000133 -6.062177826491063 C-3.1491046225789985 -6.264767367102483, -2.774884796001611 -6.439268938068955, -2.3941410032796973 -6.577848345501353 C-2.0133972105577835 -6.716427752933751, -1.6145607442151435 -6.823295662002345, -1.2155372436685306 -6.893654271085453 C-0.8165137431219176 -6.9640128801685615, -0.40517908122285695 -6.999999999999999, -1.9937625952807352e-14 -7 C0.4051790812228171 -7.000000000000001, 0.8165137431218781 -6.964012880168565, 1.2155372436684913 -6.89365427108546 C1.6145607442151044 -6.823295662002354, 2.013397210557745 -6.716427752933763, 2.3941410032796595 -6.5778483455013665 C2.774884796001574 -6.43926893806897, 3.149104622578963 -6.2647673671025, 3.499999999999979 -6.062177826491083 C3.8508953774209953 -5.859588285879665, 4.189128084166947 -5.622755194947077, 4.499513267805756 -5.362311101832862 C4.809898451444564 -5.1018670087186475, 5.101867008718613 -4.809898451444602, 5.362311101832829 -4.499513267805796 C5.622755194947046 -4.189128084166989, 5.859588285879637 -3.8508953774210393, 6.062177826491056 -3.500000000000025 C6.2647673671024755 -3.1491046225790105, 6.439268938068949 -2.774884796001623, 6.577848345501348 -2.3941410032797092 C6.716427752933747 -2.0133972105577955, 6.823295662002342 -1.6145607442151562, 6.893654271085451 -1.2155372436685434 C6.96401288016856 -0.8165137431219307, 6.982275711847575 -0.2025895406114567, 7 -3.2800750208310675e-14 C7.017724288152425 0.2025895406113911, 7.017724288152424 -0.2025895406114242, 7 0"></path><path style="" fill="none" stroke-width="2" stroke="#000000" d="M7 0 C7 0.40517908122283747, 6.964012880168563 0.816513743121899, 6.893654271085456 1.2155372436685123 C6.823295662002349 1.6145607442151257, 6.716427752933756 2.013397210557766, 6.5778483455013586 2.394141003279681 C6.439268938068961 2.7748847960015954, 6.26476736710249 3.149104622578984, 6.062177826491071 3.4999999999999996 C5.859588285879653 3.8508953774210153, 5.622755194947063 4.189128084166967, 5.362311101832846 4.499513267805774 C5.10186700871863 4.809898451444582, 4.809898451444583 5.10186700871863, 4.499513267805775 5.362311101832846 C4.189128084166968 5.622755194947063, 3.8508953774210166 5.859588285879652, 3.500000000000001 6.06217782649107 C3.149104622578985 6.264767367102489, 2.7748847960015963 6.439268938068961, 2.3941410032796817 6.5778483455013586 C2.013397210557767 6.716427752933756, 1.6145607442151264 6.823295662002349, 1.2155372436685128 6.893654271085456 C0.8165137431218992 6.964012880168563, 0.4051790812228379 7, 4.286263797015736e-16 7 C-0.405179081222837 7, -0.8165137431218985 6.964012880168563, -1.2155372436685121 6.893654271085456 C-1.6145607442151257 6.823295662002349, -2.013397210557766 6.716427752933756, -2.394141003279681 6.5778483455013586 C-2.7748847960015954 6.439268938068961, -3.1491046225789834 6.26476736710249, -3.4999999999999987 6.062177826491071 C-3.850895377421014 5.859588285879653, -4.189128084166966 5.6227551949470636, -4.499513267805773 5.362311101832848 C-4.809898451444581 5.101867008718632, -5.101867008718627 4.809898451444586, -5.362311101832843 4.499513267805779 C-5.622755194947058 4.189128084166971, -5.859588285879649 3.8508953774210206, -6.062177826491068 3.5000000000000053 C-6.264767367102486 3.14910462257899, -6.439268938068958 2.774884796001602, -6.577848345501356 2.394141003279688 C-6.716427752933754 2.0133972105577738, -6.823295662002347 1.614560744215134, -6.893654271085454 1.215537243668521 C-6.9640128801685615 0.816513743121908, -6.999999999999999 0.4051790812228472, -7 1.0183126166254463e-14 C-7.000000000000001 -0.40517908122282686, -6.964012880168565 -0.8165137431218878, -6.893654271085459 -1.215537243668501 C-6.823295662002352 -1.6145607442151142, -6.716427752933759 -2.0133972105577542, -6.577848345501363 -2.394141003279669 C-6.439268938068967 -2.7748847960015834, -6.264767367102496 -3.149104622578972, -6.062177826491078 -3.4999999999999876 C-5.859588285879661 -3.8508953774210033, -5.6227551949470715 -4.1891280841669545, -5.362311101832856 -4.499513267805763 C-5.10186700871864 -4.809898451444571, -4.809898451444594 -5.10186700871862, -4.499513267805787 -5.362311101832836 C-4.189128084166979 -5.622755194947053, -3.850895377421028 -5.859588285879644, -3.5000000000000133 -6.062177826491063 C-3.1491046225789985 -6.264767367102483, -2.774884796001611 -6.439268938068955, -2.3941410032796973 -6.577848345501353 C-2.0133972105577835 -6.716427752933751, -1.6145607442151435 -6.823295662002345, -1.2155372436685306 -6.893654271085453 C-0.8165137431219176 -6.9640128801685615, -0.40517908122285695 -6.999999999999999, -1.9937625952807352e-14 -7 C0.4051790812228171 -7.000000000000001, 0.8165137431218781 -6.964012880168565, 1.2155372436684913 -6.89365427108546 C1.6145607442151044 -6.823295662002354, 2.013397210557745 -6.716427752933763, 2.3941410032796595 -6.5778483455013665 C2.774884796001574 -6.43926893806897, 3.149104622578963 -6.2647673671025, 3.499999999999979 -6.062177826491083 C3.8508953774209953 -5.859588285879665, 4.189128084166947 -5.622755194947077, 4.499513267805756 -5.362311101832862 C4.809898451444564 -5.1018670087186475, 5.101867008718613 -4.809898451444602, 5.362311101832829 -4.499513267805796 C5.622755194947046 -4.189128084166989, 5.859588285879637 -3.8508953774210393, 6.062177826491056 -3.500000000000025 C6.2647673671024755 -3.1491046225790105, 6.439268938068949 -2.774884796001623, 6.577848345501348 -2.3941410032797092 C6.716427752933747 -2.0133972105577955, 6.823295662002342 -1.6145607442151562, 6.893654271085451 -1.2155372436685434 C6.96401288016856 -0.8165137431219307, 6.982275711847575 -0.2025895406114567, 7 -3.2800750208310675e-14 C7.017724288152425 0.2025895406113911, 7.017724288152424 -0.2025895406114242, 7 0"></path><g><path style="" fill="#13540c" stroke-width="0" stroke="none" d="M2.5 0 C2.5 0.14470681472244193, 2.487147457203058 0.29161205111496386, 2.46201938253052 0.4341204441673258 C2.436891307857982 0.5766288372196877, 2.3987241974763416 0.7190704323420595, 2.3492315519647713 0.8550503583141718 C2.299738906453201 0.991030284286284, 2.2374169168223177 1.124680222349637, 2.165063509461097 1.2499999999999998 C2.092710102099876 1.3753197776503625, 2.0081268553382365 1.496117172916774, 1.915111107797445 1.6069690242163481 C1.8220953602566536 1.7178208755159223, 1.7178208755159226 1.8220953602566536, 1.6069690242163484 1.915111107797445 C1.4961171729167742 2.0081268553382365, 1.375319777650363 2.0927101020998755, 1.2500000000000002 2.1650635094610964 C1.1246802223496375 2.2374169168223172, 0.9910302842862845 2.2997389064532, 0.8550503583141721 2.349231551964771 C0.7190704323420597 2.3987241974763416, 0.576628837219688 2.436891307857982, 0.43412044416732604 2.46201938253052 C0.291612051114964 2.487147457203058, 0.14470681472244212 2.5, 1.5308084989341916e-16 2.5 C-0.1447068147224418 2.5, -0.2916120511149638 2.487147457203058, -0.43412044416732576 2.46201938253052 C-0.5766288372196877 2.436891307857982, -0.7190704323420595 2.3987241974763416, -0.8550503583141718 2.3492315519647713 C-0.991030284286284 2.299738906453201, -1.124680222349637 2.2374169168223177, -1.2499999999999996 2.165063509461097 C-1.375319777650362 2.092710102099876, -1.4961171729167735 2.008126855338237, -1.6069690242163475 1.9151111077974459 C-1.7178208755159214 1.8220953602566548, -1.8220953602566525 1.7178208755159234, -1.9151111077974439 1.6069690242163495 C-2.008126855338235 1.4961171729167755, -2.0927101020998746 1.3753197776503645, -2.1650635094610955 1.250000000000002 C-2.2374169168223164 1.1246802223496395, -2.2997389064531992 0.9910302842862865, -2.34923155196477 0.8550503583141743 C-2.3987241974763407 0.7190704323420621, -2.436891307857981 0.5766288372196907, -2.4620193825305194 0.434120444167329 C-2.487147457203058 0.29161205111496724, -2.5 0.14470681472244545, -2.5 3.636830773662308e-15 C-2.5 -0.14470681472243818, -2.4871474572030587 -0.2916120511149599, -2.4620193825305208 -0.4341204441673218 C-2.436891307857983 -0.5766288372196837, -2.398724197476343 -0.7190704323420553, -2.3492315519647726 -0.8550503583141675 C-2.2997389064532023 -0.9910302842862798, -2.23741691682232 -1.1246802223496328, -2.165063509461099 -1.2499999999999956 C-2.092710102099878 -1.3753197776503583, -2.00812685533824 -1.4961171729167695, -1.9151111077974488 -1.606969024216344 C-1.8220953602566576 -1.7178208755159183, -1.7178208755159263 -1.8220953602566499, -1.6069690242163523 -1.9151111077974416 C-1.4961171729167784 -2.0081268553382334, -1.3753197776503672 -2.092710102099873, -1.2500000000000047 -2.165063509461094 C-1.1246802223496422 -2.2374169168223155, -0.9910302842862897 -2.299738906453198, -0.8550503583141776 -2.3492315519647686 C-0.7190704323420656 -2.3987241974763394, -0.5766288372196942 -2.4368913078579806, -0.43412044416733236 -2.462019382530519 C-0.29161205111497057 -2.4871474572030574, -0.1447068147224489 -2.4999999999999996, -7.120580697431198e-15 -2.5 C0.14470681472243463 -2.5000000000000004, 0.29161205111495647 -2.487147457203059, 0.4341204441673183 -2.4620193825305217 C0.5766288372196802 -2.436891307857984, 0.7190704323420518 -2.3987241974763442, 0.8550503583141642 -2.349231551964774 C0.9910302842862766 -2.2997389064532037, 1.1246802223496295 -2.2374169168223212, 1.2499999999999925 -2.165063509461101 C1.3753197776503554 -2.0927101020998804, 1.4961171729167668 -2.008126855338242, 1.6069690242163412 -1.915111107797451 C1.7178208755159157 -1.82209536025666, 1.8220953602566472 -1.7178208755159294, 1.915111107797439 -1.6069690242163557 C2.0081268553382308 -1.496117172916782, 2.09271010209987 -1.3753197776503712, 2.1650635094610915 -1.2500000000000089 C2.237416916822313 -1.1246802223496466, 2.299738906453196 -0.9910302842862939, 2.3492315519647673 -0.855050358314182 C2.3987241974763385 -0.71907043234207, 2.4368913078579792 -0.5766288372196986, 2.462019382530518 -0.4341204441673369 C2.487147457203057 -0.29161205111497523, 2.4936698970884197 -0.07235340736123454, 2.5 -1.1714553645825241e-14 C2.5063301029115803 0.07235340736121111, 2.50633010291158 -0.07235340736122292, 2.5 0"></path><path style="" fill="none" stroke-width="2" stroke="#13540c" d="M2.5 0 C2.5 0.14470681472244193, 2.487147457203058 0.29161205111496386, 2.46201938253052 0.4341204441673258 C2.436891307857982 0.5766288372196877, 2.3987241974763416 0.7190704323420595, 2.3492315519647713 0.8550503583141718 C2.299738906453201 0.991030284286284, 2.2374169168223177 1.124680222349637, 2.165063509461097 1.2499999999999998 C2.092710102099876 1.3753197776503625, 2.0081268553382365 1.496117172916774, 1.915111107797445 1.6069690242163481 C1.8220953602566536 1.7178208755159223, 1.7178208755159226 1.8220953602566536, 1.6069690242163484 1.915111107797445 C1.4961171729167742 2.0081268553382365, 1.375319777650363 2.0927101020998755, 1.2500000000000002 2.1650635094610964 C1.1246802223496375 2.2374169168223172, 0.9910302842862845 2.2997389064532, 0.8550503583141721 2.349231551964771 C0.7190704323420597 2.3987241974763416, 0.576628837219688 2.436891307857982, 0.43412044416732604 2.46201938253052 C0.291612051114964 2.487147457203058, 0.14470681472244212 2.5, 1.5308084989341916e-16 2.5 C-0.1447068147224418 2.5, -0.2916120511149638 2.487147457203058, -0.43412044416732576 2.46201938253052 C-0.5766288372196877 2.436891307857982, -0.7190704323420595 2.3987241974763416, -0.8550503583141718 2.3492315519647713 C-0.991030284286284 2.299738906453201, -1.124680222349637 2.2374169168223177, -1.2499999999999996 2.165063509461097 C-1.375319777650362 2.092710102099876, -1.4961171729167735 2.008126855338237, -1.6069690242163475 1.9151111077974459 C-1.7178208755159214 1.8220953602566548, -1.8220953602566525 1.7178208755159234, -1.9151111077974439 1.6069690242163495 C-2.008126855338235 1.4961171729167755, -2.0927101020998746 1.3753197776503645, -2.1650635094610955 1.250000000000002 C-2.2374169168223164 1.1246802223496395, -2.2997389064531992 0.9910302842862865, -2.34923155196477 0.8550503583141743 C-2.3987241974763407 0.7190704323420621, -2.436891307857981 0.5766288372196907, -2.4620193825305194 0.434120444167329 C-2.487147457203058 0.29161205111496724, -2.5 0.14470681472244545, -2.5 3.636830773662308e-15 C-2.5 -0.14470681472243818, -2.4871474572030587 -0.2916120511149599, -2.4620193825305208 -0.4341204441673218 C-2.436891307857983 -0.5766288372196837, -2.398724197476343 -0.7190704323420553, -2.3492315519647726 -0.8550503583141675 C-2.2997389064532023 -0.9910302842862798, -2.23741691682232 -1.1246802223496328, -2.165063509461099 -1.2499999999999956 C-2.092710102099878 -1.3753197776503583, -2.00812685533824 -1.4961171729167695, -1.9151111077974488 -1.606969024216344 C-1.8220953602566576 -1.7178208755159183, -1.7178208755159263 -1.8220953602566499, -1.6069690242163523 -1.9151111077974416 C-1.4961171729167784 -2.0081268553382334, -1.3753197776503672 -2.092710102099873, -1.2500000000000047 -2.165063509461094 C-1.1246802223496422 -2.2374169168223155, -0.9910302842862897 -2.299738906453198, -0.8550503583141776 -2.3492315519647686 C-0.7190704323420656 -2.3987241974763394, -0.5766288372196942 -2.4368913078579806, -0.43412044416733236 -2.462019382530519 C-0.29161205111497057 -2.4871474572030574, -0.1447068147224489 -2.4999999999999996, -7.120580697431198e-15 -2.5 C0.14470681472243463 -2.5000000000000004, 0.29161205111495647 -2.487147457203059, 0.4341204441673183 -2.4620193825305217 C0.5766288372196802 -2.436891307857984, 0.7190704323420518 -2.3987241974763442, 0.8550503583141642 -2.349231551964774 C0.9910302842862766 -2.2997389064532037, 1.1246802223496295 -2.2374169168223212, 1.2499999999999925 -2.165063509461101 C1.3753197776503554 -2.0927101020998804, 1.4961171729167668 -2.008126855338242, 1.6069690242163412 -1.915111107797451 C1.7178208755159157 -1.82209536025666, 1.8220953602566472 -1.7178208755159294, 1.915111107797439 -1.6069690242163557 C2.0081268553382308 -1.496117172916782, 2.09271010209987 -1.3753197776503712, 2.1650635094610915 -1.2500000000000089 C2.237416916822313 -1.1246802223496466, 2.299738906453196 -0.9910302842862939, 2.3492315519647673 -0.855050358314182 C2.3987241974763385 -0.71907043234207, 2.4368913078579792 -0.5766288372196986, 2.462019382530518 -0.4341204441673369 C2.487147457203057 -0.29161205111497523, 2.4936698970884197 -0.07235340736123454, 2.5 -1.1714553645825241e-14 C2.5063301029115803 0.07235340736121111, 2.50633010291158 -0.07235340736122292, 2.5 0"></path></g></g></g><g transform="translate(613.6875, 529.9765625)" id="state-TransactionType----note-15" class="node statediagram-note"><g class="basic label-container"><path style="" fill="#fff5ad" stroke-width="0" stroke="none" d="M-92.859375 -41.8984375 L92.859375 -41.8984375 L92.859375 41.8984375 L-92.859375 41.8984375"></path><path style="" fill="none" stroke-width="1.3" stroke="#6eaa49" d="M-92.859375 -41.8984375 C-46.82384086722587 -41.8984375, -0.7883067344517372 -41.8984375, 92.859375 -41.8984375 M-92.859375 -41.8984375 C-37.84496967805792 -41.8984375, 17.169435643884157 -41.8984375, 92.859375 -41.8984375 M92.859375 -41.8984375 C92.859375 -11.610341178406518, 92.859375 18.677755143186964, 92.859375 41.8984375 M92.859375 -41.8984375 C92.859375 -12.601565952471713, 92.859375 16.695305595056574, 92.859375 41.8984375 M92.859375 41.8984375 C36.77373777640745 41.8984375, -19.311899447185098 41.8984375, -92.859375 41.8984375 M92.859375 41.8984375 C29.896546049693733 41.8984375, -33.066282900612535 41.8984375, -92.859375 41.8984375 M-92.859375 41.8984375 C-92.859375 17.072989192935907, -92.859375 -7.752459114128186, -92.859375 -41.8984375 M-92.859375 41.8984375 C-92.859375 11.053982039776827, -92.859375 -19.790473420446347, -92.859375 -41.8984375"></path></g><g transform="translate(-77.859375, -26.8984375)" style="" class="label"><rect></rect><g><rect style="stroke: none" class="background"></rect><text style="" y="-10.1"><tspan dy="1.1em" y="-0.1em" x="0" class="text-outer-tspan"><tspan font-weight="normal" class="text-inner-tspan" font-style="normal">Users</tspan><tspan font-weight="normal" class="text-inner-tspan" font-style="normal"> can</tspan><tspan font-weight="normal" class="text-inner-tspan" font-style="normal"> choose</tspan><tspan font-weight="normal" class="text-inner-tspan" font-style="normal"> to</tspan></tspan><tspan dy="1.1em" y="1em" x="0" class="text-outer-tspan"><tspan font-weight="normal" class="text-inner-tspan" font-style="normal">deposit,</tspan><tspan font-weight="normal" class="text-inner-tspan" font-style="normal"> withdraw,</tspan><tspan font-weight="normal" class="text-inner-tspan" font-style="normal"> or</tspan></tspan><tspan dy="1.1em" y="2.1em" x="0" class="text-outer-tspan"><tspan font-weight="normal" class="text-inner-tspan" font-style="normal">transfer</tspan><tspan font-weight="normal" class="text-inner-tspan" font-style="normal"> funds.</tspan></tspan></text></g></g></g></g></g></g></svg>